<?xml version="1.0" standalone="no"?>
<!DOCTYPE svg PUBLIC "-//W3C//DTD SVG 20010904//EN"
 "http://www.w3.org/TR/2001/REC-SVG-20010904/DTD/svg10.dtd">
<svg version="1.0" xmlns="http://www.w3.org/2000/svg"
 width="120.000000pt" height="120.000000pt" viewBox="0 0 1280.000000 1098.000000"
 preserveAspectRatio="xMidYMid meet">
<metadata>
Created by potrace 1.15, written by Peter Selinger 2001-2017
</metadata>
<g transform="translate(0.000000,1098.000000) scale(0.100000,-0.100000)"
fill="#000000" stroke="none">
<path d="M7835 10973 c-209 -12 -392 -26 -515 -39 -162 -16 -543 -65 -549 -70
-2 -2 15 -24 38 -49 108 -117 156 -231 169 -399 4 -56 5 -1170 2 -2476 l-5
-2376 -1361 946 c-1320 916 -1360 945 -1334 957 15 7 85 51 156 99 197 132
228 186 228 399 0 290 -151 660 -311 763 -27 17 -68 34 -93 38 -25 4 -48 12
-52 17 -3 6 -41 12 -85 15 -68 4 -90 0 -173 -27 -52 -18 -167 -70 -256 -116
-120 -63 -666 -310 -824 -372 -12 -5 -11 -2 3 14 36 41 14 84 -98 191 -142
135 -287 185 -540 185 -368 1 -664 -111 -913 -346 -245 -233 -372 -547 -372
-924 l0 -134 31 18 c41 24 46 36 48 123 2 80 18 201 28 210 3 3 3 -8 -1 -25
-3 -16 -9 -86 -13 -154 -5 -93 -3 -122 5 -117 7 4 12 5 12 3 0 -9 -93 -60
-575 -318 l-480 -257 -3 -148 c-3 -184 18 -381 54 -495 32 -101 88 -218 126
-262 26 -30 25 -27 -12 54 -53 114 -51 136 3 34 56 -107 102 -169 185 -247 82
-77 145 -114 229 -135 112 -28 177 -4 410 150 73 48 157 97 185 108 63 24 243
132 385 230 93 64 102 73 92 91 -9 16 -8 19 3 12 7 -4 926 -681 2043 -1503
2483 -1829 2898 -2134 3104 -2281 l160 -115 1 -195 c1 -322 26 -489 96 -635
131 -278 419 -470 809 -541 139 -25 420 -30 541 -10 420 72 718 324 759 641 4
33 13 196 19 363 l11 303 670 -487 c471 -343 691 -508 740 -559 80 -81 155
-135 270 -193 45 -22 230 -149 420 -287 655 -478 681 -495 838 -563 83 -37
268 -87 266 -73 0 3 -240 181 -534 396 -294 214 -533 390 -532 391 1 1 63 -3
137 -8 370 -27 660 68 866 284 132 137 204 296 234 513 7 56 9 1151 5 3775 -4
2032 -2 4001 3 4375 10 791 -2 716 132 900 43 61 79 117 80 126 0 28 -378 109
-680 145 -260 31 -799 33 -1120 4 -257 -23 -812 -99 -826 -113 -3 -3 35 -56
85 -119 68 -83 96 -126 107 -164 13 -46 14 -523 9 -4191 -4 -2276 -7 -4248 -7
-4383 0 -232 13 -381 38 -445 7 -16 1 -15 -33 10 -22 17 -295 217 -607 445
l-566 415 0 4076 0 4075 25 50 c14 27 63 96 110 154 47 57 85 107 85 111 0 16
-387 87 -620 113 -267 30 -720 44 -965 29z m615 -53 c304 -17 438 -34 853
-107 15 -3 27 -8 27 -12 0 -3 -31 -45 -68 -92 -38 -48 -79 -108 -93 -135 l-24
-49 0 -4058 c0 -2231 -1 -4057 -3 -4057 -2 0 -19 12 -38 26 l-34 26 -2 1864
c-2 1445 -6 1866 -15 1875 -9 9 -125 13 -455 16 -244 2 -476 8 -516 13 -40 6
-154 10 -253 10 l-179 0 0 405 c0 302 -3 405 -12 405 -6 0 -40 -5 -75 -11
l-63 -11 0 -399 0 -399 -30 0 -30 0 -1 463 0 462 -34 -124 c-19 -68 -39 -163
-44 -210 -12 -95 -13 -304 -3 -478 l7 -112 -35 -6 c-19 -3 -74 -6 -122 -7
l-88 -2 0 -373 c0 -205 -3 -373 -6 -373 -3 0 -21 12 -39 26 l-35 26 -2 2477
-3 2476 -22 77 c-25 87 -61 163 -109 229 l-34 46 163 22 c289 37 500 56 847
74 139 8 401 6 570 -3z m3495 -50 c186 -14 451 -53 622 -91 76 -17 143 -34
150 -38 7 -4 -8 -32 -44 -81 -31 -41 -72 -109 -92 -150 l-36 -75 -7 -275 c-4
-151 -7 -2142 -7 -4425 2 -4515 6 -4188 -50 -4348 -76 -219 -254 -399 -476
-483 -133 -49 -224 -64 -415 -64 -203 0 -334 17 -380 50 -17 12 -30 24 -28 25
6 6 151 -15 185 -26 25 -8 60 -7 140 5 60 8 153 20 208 26 256 30 454 116 581
251 63 68 95 122 131 224 l28 80 0 3288 c0 1809 -2 3292 -5 3297 -6 10 -237
22 -435 23 -216 1 -941 1 -1065 0 -101 -1 -454 -14 -456 -17 0 0 3 -1400 8
-3111 4 -1949 11 -3153 17 -3226 11 -118 42 -253 79 -346 12 -29 19 -53 16
-53 -8 0 -127 92 -136 105 -4 5 -16 48 -27 95 -33 140 -42 353 -30 775 6 242
9 1808 7 4300 l-3 3920 -24 45 c-13 25 -50 78 -83 118 -33 40 -59 74 -57 76
17 11 586 81 774 95 83 6 166 13 185 15 89 8 600 5 725 -4z m-9195 -2650 c11
-7 6 -10 -20 -10 -26 0 -31 3 -20 10 8 5 17 10 20 10 3 0 12 -5 20 -10z m210
-10 c-19 -13 -30 -13 -30 0 0 6 10 10 23 10 18 0 19 -2 7 -10z m-453 -16 c-3
-3 -12 -4 -19 -1 -8 3 -5 6 6 6 11 1 17 -2 13 -5z m-587 -241 c-24 -21 -53
-44 -64 -52 -12 -8 -38 -30 -58 -49 -21 -20 -40 -33 -43 -30 -9 9 184 168 203
168 3 0 -14 -17 -38 -37z m-246 -205 c-4 -7 -18 -26 -30 -43 -12 -16 -32 -50
-44 -75 -27 -53 -20 -46 -48 -55 -21 -6 -20 -3 12 42 58 78 109 143 113 143 2
0 1 -6 -3 -12z m-59 -128 c-9 -16 -18 -30 -21 -30 -2 0 2 14 11 30 9 17 18 30
21 30 2 0 -2 -13 -11 -30z m-1465 -965 c-7 -8 -14 -15 -15 -15 -2 0 -5 7 -9
15 -4 10 1 15 16 15 17 0 18 -2 8 -15z m6798 -4260 c0 -29 0 -29 -8 -5 -4 14
-8 41 -8 60 l0 35 8 -30 c4 -16 8 -43 8 -60z m2202 -243 c-1 -196 -22 -623
-34 -681 -58 -278 -334 -493 -716 -557 -82 -13 -138 -16 -264 -11 -613 21
-1009 295 -1091 752 -17 101 -34 565 -19 565 4 0 27 -7 50 -16 l41 -16 6 -211
c10 -346 64 -538 201 -708 154 -191 460 -319 765 -319 436 0 776 162 910 434
62 126 64 147 69 534 l3 353 40 -32 c37 -29 39 -33 39 -87z"/>
<path d="M7495 10814 c-115 -7 -246 -17 -290 -23 l-80 -10 100 4 c55 3 172 10
260 16 88 7 322 12 520 12 348 0 370 -1 676 -36 316 -36 575 -56 494 -37 -22
5 -64 9 -93 9 -29 1 -173 14 -320 31 -147 16 -325 34 -396 40 -171 13 -609 11
-871 -6z"/>
<path d="M7630 10605 c-102 -7 -260 -17 -352 -21 l-168 -7 0 -25 0 -25 178 6
c97 4 272 14 387 22 116 8 261 15 323 15 l112 0 0 25 0 25 -147 -1 c-82 -1
-231 -7 -333 -14z"/>
<path d="M11100 10783 c-276 -18 -414 -32 -407 -40 2 -2 89 4 193 13 268 25
846 25 1074 1 213 -23 359 -43 493 -68 60 -11 116 -19 125 -17 24 5 -265 55
-448 78 -235 29 -448 40 -730 38 -140 -1 -275 -3 -300 -5z"/>
<path d="M11270 10589 c-210 -8 -346 -19 -590 -50 -212 -27 -210 -26 -210 -55
0 -28 -6 -28 119 -9 207 31 494 56 714 62 l227 6 0 29 c0 25 -3 28 -32 26 -18
0 -121 -4 -228 -9z"/>
</g>
</svg>
